<svg xmlns="http://www.w3.org/2000/svg" id="a" viewBox="0 0 36 36"><defs><style>.b{fill:#606060;}.c{fill:#f4731a;}</style></defs><path class="c" d="M11.44,23.38c-.22,1.42-1.22,2.07-2.58,1.69-.85-.23-1.47-.76-1.92-1.58-.17,.19-.32,.36-.47,.54-1.1,1.29-1.64,2.79-1.64,4.49,0,2.06,0,4.11,0,6.22h.44c3.35,0,6.7,0,10.05,0,.58,0,.86,.19,.87,.59,0,.4-.28,.61-.85,.61-3.63,0-7.25,0-10.88,0-.66,0-.83-.18-.83-.85,0-2.21,0-4.41,0-6.62,0-1.93,.61-3.64,1.84-5.13,.33-.4,.68-.8,1-1.21,.08-.11,.1-.26,.15-.4,0-.01,0-.02,0-.04,0-.51,.12-1.07-.06-1.51-.17-.43-.64-.74-.99-1.1-.64-.66-1.29-1.32-1.92-1.99-.16-.17-.29-.24-.54-.17-.73,.19-1.37-.03-1.83-.61-.47-.59-.54-1.25-.21-1.93,.11-.22,.09-.37-.03-.58-.37-.63-.84-1.21-.95-1.97-.14-.99,.03-1.89,.65-2.71,1.09-1.45,2.4-2.59,4.14-3.18,1.31-.44,2.61-.9,3.91-1.35,.66-.23,1.33-.43,1.97-.69,.34-.14,.66-.35,.93-.6,.45-.41,.84-.88,1.27-1.32,.47-.48,.92-.39,1.16,.25,.29,.79,.57,1.59,.88,2.38,.44,1.13,.33,2.19-.38,3.19-.08,.11-.15,.23-.24,.38,.71,.28,.99,.88,1.2,1.54,.17,.51,.36,1.01,.55,1.51,.4,1.12,.19,1.8-.82,2.5,.28,.42,.57,.84,.85,1.26,.3,.46,.26,.71-.16,1.05-.07,.05-.13,.12-.21,.16-.64,.38-.94,.89-1.02,1.69-.15,1.61-1.1,2.7-2.59,3.32-.17,.07-.35,.12-.52,.21-.09,.05-.22,.15-.23,.23,0,.11,.07,.26,.16,.33,.35,.28,.73,.52,1.09,.79,1.54,1.16,2.53,2.69,2.95,4.57,.09,.4-.08,.7-.42,.79-.33,.09-.64-.12-.73-.51-.4-1.74-1.35-3.11-2.82-4.12-.06-.04-.12-.08-.21-.14ZM2.17,13.38c.06,0,.09,.02,.11,0,2.03-.74,4.07-1.48,6.1-2.23,.08-.03,.18-.15,.19-.23,.1-.86,.61-1.35,1.4-1.62,.89-.3,1.78-.64,2.66-.97,.13-.05,.29-.12,.36-.23,.31-.44,.63-.88,.86-1.35,.15-.31,.26-.72,.19-1.04-.18-.77-.47-1.52-.74-2.34-.24,.25-.41,.43-.58,.61-.46,.53-1.02,.89-1.69,1.11-.77,.25-1.53,.52-2.29,.79-1.27,.44-2.54,.88-3.8,1.34-1.51,.55-2.57,1.64-3.43,2.94-.39,.6-.36,1.29-.07,1.94,.2,.45,.49,.86,.73,1.27Zm11.98,.78c-.15,.05-.27,.09-.4,.14-.67,.24-1.33,.49-2,.72-.57,.2-1.14,.16-1.59-.23-.34-.29-.61-.28-.95-.1-.05,.03-.12,.04-.17,.07-.61,.23-.61,.23-.61,.87,.01,1.18,.05,2.38-.38,3.5-.18,.47-.06,.73,.29,1.04,.64,.57,1.33,.74,2.13,.42,.44-.17,.89-.32,1.33-.5,.61-.24,1.08-.65,1.42-1.22,.05-.08,.07-.17,.12-.28-.23,0-.42,0-.6,0-.44,0-.71-.23-.71-.6,0-.36,.26-.59,.7-.6,.31,0,.61,0,.94,0,0-.17,.01-.28,0-.39-.05-.47,.14-.81,.53-1.07,.27-.17,.5-.39,.76-.6l-.8-1.18Zm-5.29-1.9c-.79,.29-1.55,.56-2.3,.84-1.32,.48-2.64,.97-3.96,1.45-.42,.16-.6,.44-.5,.78,.11,.4,.46,.56,.89,.4,1.11-.41,2.21-.83,3.32-1.24,.98-.37,1.95-.73,2.96-1.11l-.41-1.12Zm6.34-.09l-.06-.06s-.01-.1-.03-.15c-.29-.79-.56-1.59-.87-2.38-.12-.3-.4-.4-.72-.3-.36,.12-.73,.25-1.08,.4-.39,.16-.53,.43-.39,.84,.25,.73,.52,1.45,.79,2.17,.14,.36,.42,.49,.78,.37,.38-.12,.76-.24,1.11-.42,.19-.09,.31-.31,.46-.47Zm-4.97,9.73c-.89,.15-1.65-.09-2.38-.59,0,.39-.02,.72,0,1.05,.08,.87,.83,1.58,1.69,1.61,.41,.01,.68-.21,.69-.61,.01-.47,0-.94,0-1.46Zm-3-6.47l-2.62,.98,2.36,2.18c.33-.94,.27-2.02,.26-3.16Zm4.7-1.75l-1.22-3.36c-.07,.03-.2,.07-.33,.12-.65,.23-.75,.46-.52,1.1,.21,.58,.43,1.17,.64,1.75,.24,.64,.46,.75,1.1,.52,.13-.05,.25-.1,.32-.13Z"></path><path class="c" d="M31.05,8.83l.82-1.61-.09-.09c-.28,.13-.56,.24-.83,.38-.4,.2-.73,.13-.91-.18-.18-.32-.07-.67,.33-.85,.46-.21,.93-.42,1.42-.53,.79-.16,1.35,.35,1.23,1.15-.09,.55-.33,1.09-.56,1.61-.16,.36-.4,.69-.62,1.05,.92,1.35,1.3,2.85,1.02,4.49-.22,1.3-.82,2.42-1.79,3.33-1.85,1.76-4.95,2.32-7.56,.54-.56,.31-1.11,.63-1.68,.9-.33,.15-.71,.25-1.07,.28-.7,.05-1.21-.46-1.07-1.14,.12-.57,.37-1.13,.62-1.66,.14-.3,.51-.35,.78-.19,.28,.17,.37,.49,.22,.82-.11,.25-.23,.5-.34,.74-.02,.05-.04,.12,0,.26l1.62-.82c-1.26-1.47-1.78-3.09-1.52-4.93,.2-1.41,.84-2.59,1.89-3.55,2.07-1.9,5.47-2.23,8.08,.03Zm-.76,1c-.83-1.06-2.78-1.66-4.32-1.29-1.94,.47-3.2,1.68-3.66,3.63-.39,1.66,.08,3.11,1.23,4.39,2.55-1.97,4.77-4.2,6.75-6.73Zm.87,.98h-.12c-1.92,2.41-4.07,4.56-6.48,6.48,1.44,1.13,4.24,.86,5.55-.53-.71-.75-.97-1.62-.6-2.6,.37-.98,1.15-1.46,2.25-1.58l-.61-1.78Zm.54,3c-.6,.1-.96,.4-1.11,.93-.11,.42,.03,.83,.37,1.09,.39-.6,.65-1.25,.73-2.02Z"></path><path class="c" d="M23.15,27.47l-1.08-1.44c-.09,.05-.18,.09-.25,.15-1.37,.96-2.73,1.91-4.1,2.87-1.72,1.2-3.63,1.22-5.38,.07-.79-.52-1.57-1.05-2.36-1.57-.26-.17-.42-.4-.32-.72,.12-.41,.56-.54,.97-.28,.77,.5,1.54,1.02,2.3,1.53,1.42,.95,2.76,.94,4.16-.04,1.42-.99,2.83-1.99,4.26-2.98,.21-.15,.32-.31,.36-.57,.1-.69,.23-1.38,.34-2.06,.12-.77,.51-1.23,1.17-1.39,.62-.15,1.19,.12,1.62,.74,.22,.33,.38,.79,.69,.95,.33,.17,.8,.06,1.21,.06,.9,0,1.79,0,2.69,0,.88,0,1.55,.54,1.72,1.37,.16,.77-.25,1.52-1.04,1.87-1.83,.8-3.64,1.67-5.63,2.06-.16,.03-.32,.13-.46,.23-1.74,1.3-3.47,2.6-5.21,3.9-2.31,1.73-5.05,1.81-7.46,.22-1.25-.82-2.49-1.66-3.73-2.48-.26-.17-.44-.38-.36-.71,.1-.43,.56-.59,.98-.31,.91,.59,1.8,1.2,2.71,1.8,.46,.3,.9,.63,1.37,.9,1.73,1.01,3.54,1.08,5.2-.02,1.93-1.27,3.74-2.73,5.64-4.14Zm6.81-2.9c-.01-.41-.23-.58-.61-.59-1.27,0-2.54-.02-3.81,0-.49,.01-.83-.13-1.07-.57-.2-.36-.44-.69-.68-1.02-.07-.09-.23-.19-.32-.17-.09,.02-.21,.18-.23,.29-.14,.75-.27,1.49-.37,2.24-.02,.15,.03,.35,.12,.47,.34,.49,.72,.95,1.06,1.44,.12,.17,.23,.19,.43,.15,1.83-.34,3.47-1.21,5.16-1.93,.15-.07,.25-.26,.32-.34Z"></path><path class="c" d="M24.59,4.9c-.18-.1-.36-.17-.48-.29-.57-.55-1.14-1.12-1.69-1.69-.32-.32-.32-.62,0-.95,.56-.57,1.12-1.13,1.69-1.69,.32-.32,.62-.32,.95,0,.57,.56,1.13,1.12,1.69,1.69,.32,.32,.31,.62,0,.95-.56,.57-1.12,1.13-1.69,1.69-.12,.11-.29,.18-.46,.28Zm.85-2.37l-.85-.91-.85,.78,.9,.93,.8-.8Z"></path><path class="b" d="M18.6,7.24c.55,0,1.1,0,1.64,0,.67,0,.93,.44,.6,1.01-.55,.93-1.11,1.86-1.67,2.78-.32,.53-.82,.53-1.14,0-.56-.92-1.12-1.85-1.67-2.78-.34-.57-.07-1.01,.6-1.01,.55,0,1.1,0,1.64,0Zm-.73,1.21l.73,1.22,.73-1.22h-1.46Z"></path><path class="b" d="M33.52,4.84c-.55,0-1.1,0-1.64,0-.28,0-.51-.08-.65-.35-.13-.26-.04-.48,.12-.69,.55-.74,1.1-1.48,1.66-2.21,.34-.45,.77-.45,1.11,0,.56,.73,1.11,1.47,1.66,2.21,.16,.21,.24,.43,.11,.69-.13,.27-.37,.35-.65,.35-.57,0-1.15,0-1.72,0Zm-.54-1.22h1.16l-.59-.77-.58,.77Z"></path><path class="b" d="M34.14,21.59c-.99,0-1.79-.83-1.78-1.83,.02-.97,.82-1.76,1.81-1.76,.97,0,1.78,.81,1.78,1.79,0,1-.81,1.8-1.81,1.8Zm0-2.39c-.32,0-.58,.28-.58,.6,0,.32,.27,.59,.59,.59,.34,0,.61-.29,.6-.62-.01-.32-.29-.58-.61-.57Z"></path><path class="b" d="M24.6,10.83c.97,0,1.78,.82,1.78,1.79,0,1-.82,1.8-1.81,1.8-.98,0-1.78-.81-1.78-1.79,0-.99,.81-1.8,1.81-1.8Zm0,1.2c-.32,0-.59,.26-.6,.58,0,.32,.25,.6,.57,.61,.33,.01,.62-.26,.62-.6,0-.32-.27-.59-.59-.59Z"></path></svg>