<svg xmlns="http://www.w3.org/2000/svg" id="a" viewBox="0 0 36 36"><defs><style>.b{fill:#606060;}.c{fill:#f4731a;}</style></defs><path class="c" d="M22.06,35.91c-3.19-.2-6.38-.41-9.57-.6-1-.06-1.8-.44-2.41-1.25-.48-.65-1-1.28-1.5-1.91-.55-.7-.64-1.45-.32-2.28,1.06-2.8,2.1-5.6,3.16-8.4,.09-.23,.09-.4-.09-.59-.17-.18-.3-.39-.46-.58-1.12-1.28-1.26-2.75-.8-4.32,.59-2.02,1.85-3.58,3.51-4.83,.59-.44,1.24-.79,1.88-1.15,.22-.12,.35-.26,.44-.5,.75-2.02,1.51-4.04,2.27-6.05,.48-1.28,1.48-1.95,2.86-1.87,2.86,.17,5.72,.36,8.57,.55,.75,.05,1.5,.11,2.25,.14,.83,.03,1.5,.34,2,1.03,.46,.63,.96,1.23,1.44,1.85,.69,.89,.8,1.86,.41,2.9-1.98,5.26-3.95,10.53-5.92,15.8-1.26,3.36-2.51,6.72-3.78,10.07-.59,1.56-1.5,2.14-3.16,2.05-.26-.02-.52-.03-.78-.04h0Zm-5.52-26.42c.24-.06,.4-.1,.57-.13,.18-.04,.37-.09,.55-.12,2.25-.42,4.16,.05,5.5,2.08,.42,.64,.91,1.23,1.41,1.81,1.22,1.41,1.33,3.01,.74,4.68-.86,2.47-2.59,4.21-4.84,5.45-1.35,.75-2.8,1.19-4.36,1.11-1.38-.07-2.55-.57-3.39-1.72-.23-.31-.48-.61-.76-.95-.22,.58-.42,1.11-.61,1.63-.85,2.27-1.7,4.55-2.56,6.82-.18,.49-.17,.97,.13,1.41,.32,.49,.79,.68,1.37,.71,1.7,.09,3.41,.21,5.11,.31,1.98,.13,3.95,.27,5.93,.38,.95,.05,1.68-.42,2.07-1.29,.11-.25,.21-.51,.3-.77,.91-2.44,1.82-4.88,2.73-7.31,2.13-5.67,4.25-11.34,6.38-17.01,.21-.57,.45-1.13,.63-1.71,.29-.93-.24-1.79-1.18-1.94-.33-.05-.66-.04-.99-.09-.23-.03-.34,.06-.41,.27-.25,.68-.51,1.35-.77,2.03-.23,.6-.23,.59-.88,.55-2.47-.16-4.94-.33-7.4-.48-.62-.04-.69-.13-.48-.71,.27-.73,.54-1.46,.83-2.23-.43-.04-.81-.08-1.2-.1-1.07-.04-1.83,.45-2.21,1.46-.58,1.51-1.14,3.03-1.71,4.55-.15,.41-.31,.83-.49,1.31Zm-3.19,8.73s.09,0,.13-.01c1.5-.22,3-.45,4.5-.66,.27-.04,.4-.18,.49-.41,.34-.85,.68-1.68,1.03-2.53,.22-.55,.45-1.09,.67-1.65,.18-.46,.05-.61-.45-.56-.04,0-.09,0-.13,.01-1.43,.21-2.86,.42-4.29,.63-.29,.04-.47,.16-.57,.45-.12,.36-.28,.7-.42,1.05-.42,1.04-.85,2.08-1.27,3.13-.15,.38-.05,.55,.3,.56Zm8.1,3.73l-1.88-2.38-1.55,.96,1.86,2.37,1.57-.95Zm-1.35-2.71l1.84,2.33,1.28-1.31-1.86-2.36-1.26,1.33Zm1.67-1.81l1.87,2.38c.32-.58,.6-1.07,.85-1.59,.04-.09-.02-.28-.09-.38-.32-.43-.65-.84-.98-1.26-.21-.27-.43-.53-.64-.8l-1.01,1.65Zm-6.14,3.98c.57,.73,1.12,1.45,1.69,2.15,.05,.06,.15,.11,.22,.1,.59-.11,1.17-.25,1.74-.54-.6-.76-1.15-1.48-1.72-2.19-.05-.07-.21-.11-.29-.08-.53,.17-1.06,.36-1.64,.55Zm7.84-8.63c-.11,.66-.21,1.34-.36,2.01-.05,.24-.02,.4,.13,.59,.45,.56,.9,1.13,1.34,1.7,.07,.09,.1,.2,.14,.31,.71-1.95,.01-3.38-1.25-4.61Zm-10.93,8.6c1.11,1.75,2.8,2.73,4.08,2.3-.55-.7-1.09-1.4-1.64-2.08-.05-.06-.17-.1-.26-.1-.73-.04-1.46-.08-2.18-.12Z"></path><path class="b" d="M12.39,5.34c-.44,3.53-1.86,6.47-4.87,8.47-1.16,.77-2.41,.93-3.67,.15-.5-.31-1.04-.56-1.57-.84-.09-.05-.18-.1-.27-.14-1.21-.52-1.74-1.51-1.88-2.75-.16-1.4,.11-2.74,.61-4.03,.79-2.06,1.95-3.87,3.8-5.16,.49-.34,1.06-.59,1.63-.79,.72-.24,1.45-.15,2.13,.24,.77,.43,1.55,.84,2.34,1.23,.86,.42,1.35,1.12,1.55,2.03,.11,.52,.14,1.06,.21,1.58Zm-1.82,3.91s.09-.02,.1-.04c.46-.84,.75-1.74,.92-2.68,.01-.08-.08-.22-.16-.26-.62-.34-1.24-.66-1.86-.98l-.99,2.9,2,1.06Zm-1.99,3.07l1.85-2.45-2.15-1.14-1.82,2.47,2.12,1.12ZM4.46,5.36c-.1,.13-.19,.25-.28,.36-.46,.54-.92,1.08-1.37,1.62-.25,.3-.23,.45,.13,.64,.47,.25,.95,.5,1.42,.75,.37,.19,.73,.38,1.13,.59l.26-.54-2.33-1.24,1.61-1.89,1.33,.69,.29-.51-1.2-.65,1.34-1.61-.45-.37-1.45,1.69-.93-.47-.25,.53,.75,.42Zm3.51,7.34c-.43-.23-.86-.42-1.26-.67-.51-.33-.96-.48-1.41,.07-.11,.13-.28,.21-.43,.28-.45,.23-.91,.44-1.37,.66,1.52,1.14,3.24,1.02,4.47-.33ZM9.33,1.81c.32,.87,.4,1.71,.3,2.57-.03,.22,.07,.31,.24,.4,.51,.26,1.02,.54,1.54,.8,.08,.04,.17,.06,.27,.09,.37-1.83-.48-3.25-2.34-3.85Z"></path><path class="c" d="M14.28,2.95l.58-.14c.32,1.46,.25,2.89-.03,4.35l-.58-.09c.22-1.38,.32-2.73,.03-4.12Z"></path><path class="b" d="M7.38,18.09h.59c.08,1.32,.53,2.46,1.54,3.39l-.38,.47c-1.16-1.04-1.69-2.31-1.76-3.86Z"></path><path class="c" d="M14.49,1.49l-.55,.27-.96-1.27,.4-.47,1.11,1.47Z"></path><path class="b" d="M7.68,15.54l.58,.18-.24,1.15-.6-.06,.26-1.27Z"></path><path class="b" d="M26.98,13.5l-.56-.19,1.9-5.12-7.49-.48v-.56c.32,0,.62-.02,.92,0,2.23,.14,4.47,.28,6.7,.43,.61,.04,.7,.16,.49,.72-.58,1.54-1.15,3.08-1.72,4.63-.07,.19-.15,.37-.23,.58Z"></path><path class="c" d="M21.66,29.91l-.03,.61-7.24-.47v-.61l7.27,.48Z"></path><path class="c" d="M22.27,27.11l-.04,.61-6.46-.4v-.61l6.5,.4Z"></path><path class="c" d="M12.78,27.12l.03-.6,1.29,.08v.59l-1.32-.07Z"></path><path class="b" d="M12.96,29.35v.6l-1.32-.07,.03-.6,1.29,.08Z"></path><path class="c" d="M15.59,13.65l3.89-.57-1.46,3.62c-1.27-.67-1.8-1.34-2.42-3.05Z"></path><path class="c" d="M13.75,17.57l1.33-3.27,.12-.04c.31,1.21,1.03,2.1,2.12,2.7l-.06,.1-3.5,.52Z"></path></svg>