<svg xmlns="http://www.w3.org/2000/svg" id="a" viewBox="0 0 36 36"><defs><style>.b{fill:#606060;}.c{fill:#f4731a;}</style></defs><path class="c" d="M7.8,6.9c0-.74,0-1.43,0-2.12,0-1.36,.89-2.26,2.24-2.26,5.31,0,10.62,0,15.93,0,1.34,0,2.23,.89,2.23,2.22,0,.7,0,1.41,0,2.13,.1,.03,.18,.06,.27,.09,1.98,.49,3.95,.98,5.93,1.48,.84,.21,1.44,.71,1.58,1.6,.05,.36,.02,.75-.07,1.11-.63,2.58-1.29,5.16-1.94,7.73-.11,.45-.4,.69-.77,.67-.47-.03-.74-.45-.61-.98,.21-.85,.43-1.7,.64-2.55,.43-1.71,.87-3.43,1.3-5.14,.01-.05,.02-.09,.03-.14,.13-.57-.01-.81-.57-.96-1-.25-2-.49-3-.74-.91-.23-1.82-.45-2.78-.7,0,.44-.01,.85,0,1.27,0,.1,.11,.2,.19,.28,.82,.92,1.63,1.84,2.46,2.75,.28,.3,.34,.61,.2,.99-.51,1.43-1.02,2.87-1.51,4.31-.13,.39-.36,.61-.76,.67-.18,.03-.37,.07-.6,.12v.41c0,3.15-.03,6.31,.01,9.46,.02,1.35-.96,2.41-2.35,2.33-.55-.03-1.1,0-1.66,.04,.08,.03,.16,.06,.24,.08,1.3,.31,2.6,.61,3.89,.95,.48,.13,.89-.05,1.05-.67,.51-2.08,1.04-4.16,1.56-6.23,.02-.09,.04-.18,.07-.27,.12-.39,.47-.61,.83-.52,.39,.09,.62,.44,.52,.86-.18,.8-.39,1.59-.59,2.39-.35,1.4-.7,2.79-1.05,4.19-.28,1.09-1.18,1.81-2.21,1.73-.35-.03-.69-.13-1.03-.22-3.04-.73-6.08-1.47-9.11-2.2-.26-.06-.5-.06-.76,0-3.23,.79-6.46,1.57-9.69,2.34-1.27,.3-2.33-.36-2.65-1.65-1.04-4.12-2.07-8.24-3.11-12.36C1.48,16.65,.78,13.91,.11,11.17c-.09-.36-.13-.75-.09-1.11,.11-.86,.67-1.38,1.49-1.59,1.16-.31,2.34-.59,3.51-.88,.92-.23,1.84-.46,2.78-.69Zm19,9.84c0-3.96,0-7.93,0-11.89,0-.68-.23-.91-.9-.91-1.74,0-3.47,0-5.21,0-3.53,0-7.06,0-10.59,0-.25,0-.49,.02-.68,.21-.2,.2-.21,.46-.21,.72,0,7.91,0,15.83,0,23.74,0,.7,.23,.93,.92,.93,4.08,0,8.16,0,12.24,0,1.2,0,2.39,0,3.59,0,.29,0,.56-.05,.7-.31,.09-.18,.13-.4,.13-.6,0-3.96,0-7.93,0-11.89ZM7.8,8.35c-1.88,.47-3.71,.92-5.54,1.37-.9,.22-.98,.37-.75,1.28,1.3,5.15,2.6,10.31,3.89,15.46,.42,1.66,.83,3.32,1.26,4.97,.13,.53,.44,.7,.97,.58,.96-.23,1.91-.46,2.87-.69,.44-.11,.88-.21,1.31-.32-.57-.06-1.14-.08-1.7-.05-1.35,.07-2.34-.97-2.33-2.33,.04-3.15,.01-6.31,.01-9.46v-.41c-.2-.05-.36-.1-.52-.11-.46-.05-.72-.3-.87-.75-.47-1.42-.97-2.83-1.48-4.24-.14-.39-.08-.69,.2-1,.84-.92,1.66-1.85,2.48-2.78,.08-.09,.17-.21,.18-.32,.02-.38,0-.77,0-1.2Zm-.08,8.93l.05-.02v-5.43c-.44,.49-.83,.94-1.24,1.37-.15,.16-.16,.3-.09,.5,.39,1.1,.77,2.21,1.16,3.31,.03,.09,.08,.18,.12,.27Zm20.5,.02c.07-.05,.09-.06,.1-.07,.43-1.21,.86-2.43,1.27-3.64,.03-.1-.03-.27-.11-.36-.35-.41-.71-.81-1.07-1.21-.05-.05-.11-.09-.19-.16v5.45Z"></path><path class="c" d="M31.78,21.94c0-.39,.28-.69,.66-.71,.4-.01,.73,.29,.73,.68,0,.38-.33,.72-.71,.72-.38,0-.68-.31-.69-.69Z"></path><path class="b" d="M12.44,12.36c0-.89,0-1.78,0-2.67,0-.37,.13-.62,.45-.8,1.55-.89,3.1-1.79,4.65-2.7,.32-.19,.61-.19,.92,0,1.55,.9,3.1,1.8,4.65,2.7,.32,.18,.46,.44,.45,.81,0,1.79,0,3.59,0,5.38,0,.35-.13,.6-.44,.78-1.56,.9-3.12,1.8-4.68,2.71-.3,.18-.59,.18-.89,0-1.56-.91-3.12-1.82-4.68-2.71-.31-.18-.44-.42-.44-.78,0-.9,0-1.8,0-2.71Zm9.71,.03c0-.7,0-1.41,0-2.11,0-.23-.06-.36-.26-.47-1.22-.69-2.44-1.4-3.65-2.11-.17-.1-.3-.11-.48,0-1.22,.72-2.45,1.43-3.68,2.13-.17,.1-.25,.2-.25,.41,.01,1.43,0,2.86,0,4.29,0,.19,.05,.29,.22,.39,1.24,.71,2.48,1.43,3.71,2.15,.16,.09,.28,.11,.45,.01,1.23-.72,2.47-1.44,3.71-2.15,.18-.1,.23-.22,.23-.42,0-.7,0-1.41,0-2.11Z"></path><path class="b" d="M12.02,24.3c0,.8,0,1.59,0,2.39,0,.31-.13,.54-.42,.68-.24,.12-.51,.11-.69-.08-.14-.15-.29-.37-.29-.56-.02-1.86-.02-3.73-.01-5.59,0-.37,.23-.64,.56-.71,.3-.07,.61,.08,.78,.41,.42,.84,.83,1.68,1.25,2.52,.05,.1,.1,.2,.22,.3,0-.1,0-.19,0-.29,0-.73,0-1.45,0-2.18,0-.46,.29-.77,.69-.77,.42,0,.71,.31,.72,.78,0,1.77,0,3.54,0,5.31,0,.46-.22,.77-.58,.86-.36,.09-.69-.09-.9-.51-.38-.75-.75-1.51-1.12-2.27-.05-.1-.1-.2-.16-.3l-.06,.02Z"></path><path class="b" d="M17.65,24.56c0,.75,0,1.44,0,2.13-.01,.59-.58,.93-1.05,.65-.23-.14-.35-.34-.35-.61,0-1.87,0-3.75,0-5.62,0-.42,.29-.7,.72-.7,.69-.01,1.38-.01,2.07,0,.42,0,.72,.31,.72,.7,0,.39-.3,.69-.73,.7-.44,.01-.89,0-1.36,0v1.35c.38,0,.76,0,1.14,0,.33,0,.6,.13,.72,.45,.18,.45-.13,.92-.62,.95-.41,.02-.81,0-1.27,0Z"></path><path class="b" d="M22.57,21.8c-.24,0-.45,0-.66,0-.45-.01-.75-.32-.74-.72,.01-.39,.31-.68,.74-.68,.91,0,1.83,0,2.74,0,.43,0,.73,.31,.73,.7,0,.39-.3,.69-.72,.71-.21,0-.42,0-.69,0v.38c0,1.44,0,2.88,0,4.33,0,.15,0,.31-.05,.45-.1,.31-.39,.49-.71,.47-.32-.03-.59-.28-.64-.61-.02-.12,0-.23,0-.35,0-1.42,0-2.84,0-4.26v-.41Z"></path></svg>