<svg xmlns="http://www.w3.org/2000/svg" id="a" viewBox="0 0 36 36"><defs><style>.b{fill:#f4731a;}</style></defs><path class="b" d="M16.38,31.76l.97-3.73-.72-.5c-.7,.49-1.39,.99-2.09,1.47-.16,.11-.11,.23-.11,.38,.01,.34,.05,.7-.03,1.03-.28,1.16-1.53,1.79-2.68,1.39-1.13-.4-1.68-1.69-1.18-2.79,.49-1.09,1.84-1.55,2.87-.97,.12,.06,.23,.14,.36,.22l2.25-1.59c-.43-1.23-.22-2.31,.71-3.23l-5.92-10.25h-1.54l-1.06,2.32c.5,.48,.79,1.05,.74,1.75-.03,.44-.17,.84-.45,1.18-.63,.76-1.62,.98-2.49,.57-.86-.41-1.31-1.3-1.15-2.25,.18-1.04,.95-1.59,2.4-1.71l1.03-2.28c-1.04-.89-1.4-1.97-.96-3.32l-1.92-1.27c-.15,.11-.27,.21-.4,.3-1.04,.75-2.46,.66-3.44-.2-.94-.83-1.18-2.27-.57-3.37,.08-.14,.17-.27,.27-.39,.18-.2,.44-.22,.65-.09,.21,.13,.29,.39,.2,.63-.04,.11-.12,.21-.18,.31-.49,.87-.18,1.93,.68,2.37,.87,.44,1.89,.1,2.31-.77,.43-.88,.04-1.91-.87-2.31-.09-.04-.18-.06-.26-.1-.26-.13-.36-.38-.28-.63,.09-.26,.31-.41,.6-.34,.23,.06,.46,.15,.67,.26,1.07,.61,1.58,1.87,1.28,3.06-.03,.11-.06,.23-.1,.37l1.89,1.24,1.31-.78-.11-1.69c-.67-.21-1.23-.57-1.51-1.25-.18-.43-.21-.88-.1-1.33,.24-.93,1.04-1.55,1.99-1.55,.94,0,1.78,.64,2.01,1.54,.26,1.02-.17,1.86-1.34,2.53l.12,1.74c1.19,.24,1.97,.93,2.34,2.1h11.62l.8-1.39-.81-1.26c-.66,.14-1.29,.11-1.84-.29-.38-.27-.65-.63-.78-1.08-.27-.93,.09-1.89,.92-2.39,.78-.47,1.8-.36,2.48,.29,.78,.74,.82,1.68,.12,2.93l.82,1.28,.92-.21,.53-3.62c-.6-.32-1.04-.77-1.2-1.43-.11-.45-.07-.9,.12-1.33,.37-.83,1.28-1.34,2.15-1.21,.95,.13,1.69,.88,1.79,1.79,.12,1.13-.39,1.81-1.82,2.38l-.53,3.6c1.23,.53,1.84,1.46,1.85,2.81l1.69,.45c.36-.58,.89-.93,1.55-1.03,.47-.07,.9,.05,1.3,.28,.82,.47,1.2,1.47,.91,2.39-.27,.89-1.14,1.5-2.07,1.46-1.05-.05-1.75-.76-2-2.08l-1.64-.46c-.07,.09-.13,.18-.19,.26-.64,.92-1.51,1.37-2.64,1.25-.3-.03-.46,.04-.59,.31-.21,.43-.47,.84-.71,1.25-.05,.09-.11,.19-.17,.27-.19,.26-.45,.33-.7,.19-.26-.15-.34-.43-.18-.73,.26-.48,.54-.95,.81-1.43,.06-.11,.12-.23,.2-.38-.55-.46-.94-1.03-1.05-1.77H12.65c-.15,.65-.45,1.2-.96,1.67l5.93,10.27c.33-.03,.64-.09,.94-.09,.29,0,.58,.06,.9,.09,.31-.54,.64-1.09,.96-1.64,.85-1.47,1.69-2.94,2.54-4.4,.07-.12,.13-.23,.22-.33,.17-.2,.44-.24,.65-.12,.22,.13,.31,.38,.23,.62-.04,.12-.12,.24-.18,.36-1.03,1.79-2.07,3.58-3.1,5.37-.13,.23-.26,.46-.41,.72,.52,.47,.82,1.06,.93,1.75l1.83,.16c.71-1.2,1.6-1.63,2.63-1.29,.92,.3,1.53,1.23,1.43,2.17-.1,.96-.86,1.75-1.81,1.86-1.05,.13-1.89-.47-2.31-1.68l-1.79-.15-.71,1.24,.94,1.36c.15-.04,.28-.09,.41-.12,1.08-.26,2.02,0,2.76,.83,.71,.8,.89,1.74,.53,2.76-.03,.09-.07,.18-.11,.25-.14,.22-.39,.3-.63,.21-.23-.09-.37-.33-.32-.58,.02-.1,.07-.2,.1-.3,.3-.96-.24-1.91-1.23-2.17-.89-.24-1.85,.35-2.05,1.26-.22,.97,.38,1.88,1.35,2.06,.12,.02,.24,.03,.36,.05,.31,.06,.48,.27,.46,.55-.02,.27-.24,.48-.55,.47-.5,0-.98-.13-1.41-.4-1.39-.88-1.73-2.65-.77-3.98,.07-.1,.14-.19,.22-.31l-.94-1.36-1.33,.24-.97,3.7c1.04,.89,1.31,1.86,.79,2.82-.45,.83-1.43,1.25-2.35,1-.95-.26-1.56-1.09-1.52-2.09,.04-1.06,.76-1.77,2.07-2.01ZM11.61,10.47c0-.95-.75-1.7-1.7-1.69-.95,0-1.69,.76-1.69,1.7,0,.95,.75,1.69,1.7,1.69,.96,0,1.69-.74,1.69-1.7Zm15.39,1.7c.94,0,1.7-.78,1.69-1.71-.01-.94-.78-1.69-1.72-1.68-.94,0-1.69,.77-1.68,1.72,0,.94,.77,1.69,1.72,1.68Zm-8.45,11.66c-.95,0-1.7,.74-1.7,1.69,0,.94,.75,1.7,1.69,1.7,.94,0,1.7-.75,1.7-1.69,0-.95-.75-1.7-1.69-1.7Zm15.7-11.66c0-.55-.46-1.03-1-1.03-.55,0-1.01,.46-1.02,1.01,0,.56,.44,1.03,1,1.03,.55,0,1.02-.46,1.02-1.01ZM7.92,17.13c0-.56-.45-1.02-1-1.03-.56,0-1.01,.45-1.02,1.01,0,.56,.45,1.03,1,1.04,.54,0,1.02-.47,1.02-1.02Zm18.21,8.91c0-.56-.44-1.02-1-1.02-.56,0-1.03,.45-1.03,1,0,.54,.46,1.02,1.01,1.03,.55,0,1.02-.46,1.03-1.01ZM28.2,3.16c.56,0,1.02-.45,1.02-1.01,0-.56-.45-1.02-1-1.03-.55,0-1.01,.46-1.02,1.01,0,.57,.44,1.02,1,1.02ZM13.44,29.88c.01-.57-.44-1.02-1-1.03-.56,0-.99,.41-1.01,.97-.02,.57,.41,1.04,.98,1.06,.55,.02,1.03-.45,1.04-1Zm2.95,2.98c-.57,0-1.02,.43-1.02,1,0,.56,.44,1.03,.99,1.04,.55,0,1.01-.45,1.02-1.01,0-.57-.43-1.02-.99-1.03ZM10.49,3.97c0-.57-.48-1.01-1.04-1-.57,.02-1,.48-.98,1.05,.02,.55,.47,.98,1.02,.97,.57,0,1.01-.46,1-1.03Zm14.09,1.21c0-.57-.45-1.02-1.02-1.01-.56,0-1.01,.47-1,1.03,.01,.55,.45,.99,1,.99,.56,0,1.02-.44,1.02-1.01Z"></path></svg>